<?xml version="1.0" encoding="UTF-8"?>
<svg width="512" height="512" viewBox="0 0 512 512" xmlns="http://www.w3.org/2000/svg">
  <defs>
    <linearGradient id="grad3" x1="0%" y1="0%" x2="100%" y2="100%">
      <stop offset="0%" style="stop-color:#1B2631;stop-opacity:1" />
      <stop offset="100%" style="stop-color:#0B131A;stop-opacity:1" />
    </linearGradient>
  </defs>
  <path d="M 102.4 0 L 409.6 0 C 465.8 0 512 46.2 512 102.4 L 512 409.6 C 512 465.8 465.8 512 409.6 512 L 102.4 512 C 46.2 512 0 465.8 0 409.6 L 0 102.4 C 0 46.2 46.2 0 102.4 0 Z" fill="url(#grad3)"/>
  <line x1="150" y1="350" x2="256" y2="256" stroke="#00FF88" stroke-width="12" stroke-linecap="round"/>
  <line x1="256" y1="256" x2="362" y2="350" stroke="#00FF88" stroke-width="12" stroke-linecap="round"/>
  <line x1="256" y1="256" x2="256" y2="150" stroke="#00FF88" stroke-width="12" stroke-linecap="round"/>
  <circle cx="150" cy="350" r="25" fill="#FFFFFF"/>
  <circle cx="362" cy="350" r="25" fill="#FFFFFF"/>
  <circle cx="256" cy="150" r="25" fill="#FFFFFF"/>
  <circle cx="256" cy="256" r="30" fill="#00FF88"/>
</svg>
